# Blender v2.90.1 OBJ File: 'ring.blend'
# www.blender.org
mtllib ring.mtl
o Torus
v 0.330000 0.000000 0.000000
v 0.321213 0.021213 0.000000
v 0.300000 0.030000 0.000000
v 0.278787 0.021213 0.000000
v 0.270000 0.000000 0.000000
v 0.278787 -0.021213 0.000000
v 0.300000 -0.030000 0.000000
v 0.321213 -0.021213 0.000000
v 0.304880 0.000000 -0.126286
v 0.296762 0.021213 -0.122923
v 0.277164 0.030000 -0.114805
v 0.257565 0.021213 -0.106687
v 0.249447 0.000000 -0.103325
v 0.257565 -0.021213 -0.106687
v 0.277164 -0.030000 -0.114805
v 0.296762 -0.021213 -0.122923
v 0.233345 0.000000 -0.233345
v 0.227132 0.021213 -0.227132
v 0.212132 0.030000 -0.212132
v 0.197132 0.021213 -0.197132
v 0.190919 0.000000 -0.190919
v 0.197132 -0.021213 -0.197132
v 0.212132 -0.030000 -0.212132
v 0.227132 -0.021213 -0.227132
v 0.126286 0.000000 -0.304880
v 0.122923 0.021213 -0.296762
v 0.114805 0.030000 -0.277164
v 0.106687 0.021213 -0.257565
v 0.103325 0.000000 -0.249447
v 0.106687 -0.021213 -0.257565
v 0.114805 -0.030000 -0.277164
v 0.122923 -0.021213 -0.296762
v 0.000000 0.000000 -0.330000
v 0.000000 0.021213 -0.321213
v 0.000000 0.030000 -0.300000
v 0.000000 0.021213 -0.278787
v 0.000000 0.000000 -0.270000
v 0.000000 -0.021213 -0.278787
v 0.000000 -0.030000 -0.300000
v 0.000000 -0.021213 -0.321213
v -0.126286 0.000000 -0.304880
v -0.122923 0.021213 -0.296762
v -0.114805 0.030000 -0.277164
v -0.106687 0.021213 -0.257565
v -0.103325 0.000000 -0.249447
v -0.106687 -0.021213 -0.257565
v -0.114805 -0.030000 -0.277164
v -0.122923 -0.021213 -0.296762
v -0.233345 0.000000 -0.233345
v -0.227132 0.021213 -0.227132
v -0.212132 0.030000 -0.212132
v -0.197132 0.021213 -0.197132
v -0.190919 0.000000 -0.190919
v -0.197132 -0.021213 -0.197132
v -0.212132 -0.030000 -0.212132
v -0.227132 -0.021213 -0.227132
v -0.304880 0.000000 -0.126286
v -0.296762 0.021213 -0.122923
v -0.277164 0.030000 -0.114805
v -0.257565 0.021213 -0.106687
v -0.249447 0.000000 -0.103325
v -0.257565 -0.021213 -0.106687
v -0.277164 -0.030000 -0.114805
v -0.296762 -0.021213 -0.122923
v -0.330000 0.000000 -0.000000
v -0.321213 0.021213 -0.000000
v -0.300000 0.030000 -0.000000
v -0.278787 0.021213 -0.000000
v -0.270000 0.000000 -0.000000
v -0.278787 -0.021213 -0.000000
v -0.300000 -0.030000 -0.000000
v -0.321213 -0.021213 -0.000000
v -0.304880 0.000000 0.126285
v -0.296762 0.021213 0.122923
v -0.277164 0.030000 0.114805
v -0.257565 0.021213 0.106687
v -0.249448 0.000000 0.103324
v -0.257565 -0.021213 0.106687
v -0.277164 -0.030000 0.114805
v -0.296762 -0.021213 0.122923
v -0.233345 0.000000 0.233345
v -0.227132 0.021213 0.227132
v -0.212132 0.030000 0.212132
v -0.197132 0.021213 0.197132
v -0.190919 0.000000 0.190919
v -0.197132 -0.021213 0.197132
v -0.212132 -0.030000 0.212132
v -0.227132 -0.021213 0.227132
v -0.126286 0.000000 0.304880
v -0.122923 0.021213 0.296762
v -0.114805 0.030000 0.277164
v -0.106687 0.021213 0.257565
v -0.103325 0.000000 0.249447
v -0.106687 -0.021213 0.257565
v -0.114805 -0.030000 0.277164
v -0.122923 -0.021213 0.296762
v 0.000000 0.000000 0.330000
v 0.000000 0.021213 0.321213
v 0.000000 0.030000 0.300000
v 0.000000 0.021213 0.278787
v 0.000000 0.000000 0.270000
v 0.000000 -0.021213 0.278787
v 0.000000 -0.030000 0.300000
v 0.000000 -0.021213 0.321213
v 0.126286 0.000000 0.304880
v 0.122923 0.021213 0.296762
v 0.114805 0.030000 0.277164
v 0.106687 0.021213 0.257565
v 0.103325 0.000000 0.249447
v 0.106687 -0.021213 0.257565
v 0.114805 -0.030000 0.277164
v 0.122923 -0.021213 0.296762
v 0.233345 0.000000 0.233345
v 0.227132 0.021213 0.227132
v 0.212132 0.030000 0.212132
v 0.197132 0.021213 0.197132
v 0.190919 0.000000 0.190919
v 0.197132 -0.021213 0.197132
v 0.212132 -0.030000 0.212132
v 0.227132 -0.021213 0.227132
v 0.304880 0.000000 0.126286
v 0.296762 0.021213 0.122923
v 0.277164 0.030000 0.114805
v 0.257565 0.021213 0.106687
v 0.249447 0.000000 0.103325
v 0.257565 -0.021213 0.106687
v 0.277164 -0.030000 0.114805
v 0.296762 -0.021213 0.122923
vt 0.500000 0.500000
vt 0.562500 0.500000
vt 0.562500 0.625000
vt 0.500000 0.625000
vt 0.562500 0.750000
vt 0.500000 0.750000
vt 0.562500 0.875000
vt 0.500000 0.875000
vt 0.562500 1.000000
vt 0.500000 1.000000
vt 0.500000 0.000000
vt 0.562500 0.000000
vt 0.562500 0.125000
vt 0.500000 0.125000
vt 0.562500 0.250000
vt 0.500000 0.250000
vt 0.562500 0.375000
vt 0.500000 0.375000
vt 0.625000 0.500000
vt 0.625000 0.625000
vt 0.625000 0.750000
vt 0.625000 0.875000
vt 0.625000 1.000000
vt 0.625000 0.000000
vt 0.625000 0.125000
vt 0.625000 0.250000
vt 0.625000 0.375000
vt 0.687500 0.500000
vt 0.687500 0.625000
vt 0.687500 0.750000
vt 0.687500 0.875000
vt 0.687500 1.000000
vt 0.687500 0.000000
vt 0.687500 0.125000
vt 0.687500 0.250000
vt 0.687500 0.375000
vt 0.750000 0.500000
vt 0.750000 0.625000
vt 0.750000 0.750000
vt 0.750000 0.875000
vt 0.750000 1.000000
vt 0.750000 0.000000
vt 0.750000 0.125000
vt 0.750000 0.250000
vt 0.750000 0.375000
vt 0.812500 0.500000
vt 0.812500 0.625000
vt 0.812500 0.750000
vt 0.812500 0.875000
vt 0.812500 1.000000
vt 0.812500 0.000000
vt 0.812500 0.125000
vt 0.812500 0.250000
vt 0.812500 0.375000
vt 0.875000 0.500000
vt 0.875000 0.625000
vt 0.875000 0.750000
vt 0.875000 0.875000
vt 0.875000 1.000000
vt 0.875000 0.000000
vt 0.875000 0.125000
vt 0.875000 0.250000
vt 0.875000 0.375000
vt 0.937500 0.500000
vt 0.937500 0.625000
vt 0.937500 0.750000
vt 0.937500 0.875000
vt 0.937500 1.000000
vt 0.937500 0.000000
vt 0.937500 0.125000
vt 0.937500 0.250000
vt 0.937500 0.375000
vt 1.000000 0.500000
vt 1.000000 0.625000
vt 1.000000 0.750000
vt 1.000000 0.875000
vt 1.000000 1.000000
vt 1.000000 0.000000
vt 1.000000 0.125000
vt 1.000000 0.250000
vt 1.000000 0.375000
vt 0.000000 0.500000
vt 0.062500 0.500000
vt 0.062500 0.625000
vt 0.000000 0.625000
vt 0.062500 0.750000
vt 0.000000 0.750000
vt 0.062500 0.875000
vt 0.000000 0.875000
vt 0.062500 1.000000
vt 0.000000 1.000000
vt 0.000000 0.000000
vt 0.062500 0.000000
vt 0.062500 0.125000
vt 0.000000 0.125000
vt 0.062500 0.250000
vt 0.000000 0.250000
vt 0.062500 0.375000
vt 0.000000 0.375000
vt 0.125000 0.500000
vt 0.125000 0.625000
vt 0.125000 0.750000
vt 0.125000 0.875000
vt 0.125000 1.000000
vt 0.125000 0.000000
vt 0.125000 0.125000
vt 0.125000 0.250000
vt 0.125000 0.375000
vt 0.187500 0.500000
vt 0.187500 0.625000
vt 0.187500 0.750000
vt 0.187500 0.875000
vt 0.187500 1.000000
vt 0.187500 0.000000
vt 0.187500 0.125000
vt 0.187500 0.250000
vt 0.187500 0.375000
vt 0.250000 0.500000
vt 0.250000 0.625000
vt 0.250000 0.750000
vt 0.250000 0.875000
vt 0.250000 1.000000
vt 0.250000 0.000000
vt 0.250000 0.125000
vt 0.250000 0.250000
vt 0.250000 0.375000
vt 0.312500 0.500000
vt 0.312500 0.625000
vt 0.312500 0.750000
vt 0.312500 0.875000
vt 0.312500 1.000000
vt 0.312500 0.000000
vt 0.312500 0.125000
vt 0.312500 0.250000
vt 0.312500 0.375000
vt 0.375000 0.500000
vt 0.375000 0.625000
vt 0.375000 0.750000
vt 0.375000 0.875000
vt 0.375000 1.000000
vt 0.375000 0.000000
vt 0.375000 0.125000
vt 0.375000 0.250000
vt 0.375000 0.375000
vt 0.437500 0.500000
vt 0.437500 0.625000
vt 0.437500 0.750000
vt 0.437500 0.875000
vt 0.437500 1.000000
vt 0.437500 0.000000
vt 0.437500 0.125000
vt 0.437500 0.250000
vt 0.437500 0.375000
vn 1.0000 0.0000 0.0000
vn 0.9239 0.0000 -0.3827
vn 0.6739 0.6840 -0.2791
vn 0.7294 0.6840 0.0000
vn 0.0441 0.9988 -0.0183
vn 0.0477 0.9988 0.0000
vn -0.6297 0.7317 0.2608
vn -0.6816 0.7317 0.0000
vn -0.9239 0.0000 0.3827
vn -1.0000 0.0000 0.0000
vn -0.6297 -0.7317 0.2608
vn -0.6816 -0.7317 0.0000
vn 0.0441 -0.9988 -0.0183
vn 0.0477 -0.9988 0.0000
vn 0.6739 -0.6840 -0.2791
vn 0.7294 -0.6840 0.0000
vn 0.7071 0.0000 -0.7071
vn 0.5158 0.6840 -0.5158
vn 0.0338 0.9988 -0.0338
vn -0.4819 0.7317 0.4819
vn -0.7071 0.0000 0.7071
vn -0.4819 -0.7317 0.4819
vn 0.0338 -0.9988 -0.0338
vn 0.5158 -0.6840 -0.5158
vn 0.3827 0.0000 -0.9239
vn 0.2791 0.6840 -0.6739
vn 0.0183 0.9988 -0.0441
vn -0.2608 0.7317 0.6297
vn -0.3827 0.0000 0.9239
vn -0.2608 -0.7317 0.6297
vn 0.0183 -0.9988 -0.0441
vn 0.2791 -0.6840 -0.6739
vn 0.0000 0.0000 -1.0000
vn 0.0000 0.6840 -0.7294
vn 0.0000 0.9988 -0.0477
vn 0.0000 0.7317 0.6816
vn 0.0000 0.0000 1.0000
vn 0.0000 -0.7317 0.6816
vn 0.0000 -0.9988 -0.0477
vn 0.0000 -0.6840 -0.7294
vn -0.3827 0.0000 -0.9239
vn -0.2791 0.6840 -0.6739
vn -0.0183 0.9988 -0.0441
vn 0.2608 0.7317 0.6297
vn 0.3827 0.0000 0.9239
vn 0.2608 -0.7317 0.6297
vn -0.0183 -0.9988 -0.0441
vn -0.2791 -0.6840 -0.6739
vn -0.7071 0.0000 -0.7071
vn -0.5158 0.6840 -0.5158
vn -0.0338 0.9988 -0.0338
vn 0.4819 0.7317 0.4819
vn 0.7071 0.0000 0.7071
vn 0.4819 -0.7317 0.4819
vn -0.0338 -0.9988 -0.0338
vn -0.5158 -0.6840 -0.5158
vn -0.9239 0.0000 -0.3827
vn -0.6739 0.6840 -0.2791
vn -0.0441 0.9988 -0.0183
vn 0.6297 0.7317 0.2608
vn 0.9239 0.0000 0.3827
vn 0.6297 -0.7317 0.2608
vn -0.0441 -0.9988 -0.0183
vn -0.6739 -0.6840 -0.2791
vn -0.7294 0.6840 0.0000
vn -0.0477 0.9988 0.0000
vn 0.6816 0.7317 0.0000
vn 0.6816 -0.7317 0.0000
vn -0.0477 -0.9988 0.0000
vn -0.7294 -0.6840 0.0000
vn -0.6739 0.6840 0.2791
vn -0.0441 0.9988 0.0183
vn 0.6297 0.7317 -0.2608
vn 0.6297 -0.7317 -0.2608
vn -0.0441 -0.9988 0.0183
vn -0.6739 -0.6840 0.2791
vn -0.5158 0.6840 0.5158
vn -0.0338 0.9988 0.0338
vn 0.4819 0.7317 -0.4819
vn 0.4819 -0.7317 -0.4819
vn -0.0338 -0.9988 0.0338
vn -0.5158 -0.6840 0.5158
vn -0.2791 0.6840 0.6739
vn -0.0183 0.9988 0.0441
vn 0.2608 0.7317 -0.6297
vn 0.2608 -0.7317 -0.6297
vn -0.0183 -0.9988 0.0441
vn -0.2791 -0.6840 0.6739
vn 0.0000 0.6840 0.7294
vn 0.0000 0.9988 0.0477
vn 0.0000 0.7317 -0.6816
vn 0.0000 -0.7317 -0.6816
vn 0.0000 -0.9988 0.0477
vn 0.0000 -0.6840 0.7294
vn 0.2791 0.6840 0.6739
vn 0.0183 0.9988 0.0441
vn -0.2608 0.7317 -0.6297
vn -0.2608 -0.7317 -0.6297
vn 0.0183 -0.9988 0.0441
vn 0.2791 -0.6840 0.6739
vn 0.5158 0.6840 0.5158
vn 0.0338 0.9988 0.0338
vn -0.4819 0.7317 -0.4819
vn -0.4819 -0.7317 -0.4819
vn 0.0338 -0.9988 0.0338
vn 0.5158 -0.6840 0.5158
vn 0.6739 0.6840 0.2791
vn 0.0441 0.9988 0.0183
vn -0.6297 0.7317 -0.2608
vn -0.6297 -0.7317 -0.2608
vn 0.0441 -0.9988 0.0183
vn 0.6739 -0.6840 0.2791
usemtl Metal
s 1
f 1/1/1 9/2/2 10/3/3 2/4/4
f 2/4/4 10/3/3 11/5/5 3/6/6
f 3/6/6 11/5/5 12/7/7 4/8/8
f 4/8/8 12/7/7 13/9/9 5/10/10
f 5/11/10 13/12/9 14/13/11 6/14/12
f 6/14/12 14/13/11 15/15/13 7/16/14
f 7/16/14 15/15/13 16/17/15 8/18/16
f 8/18/16 16/17/15 9/2/2 1/1/1
f 9/2/2 17/19/17 18/20/18 10/3/3
f 10/3/3 18/20/18 19/21/19 11/5/5
f 11/5/5 19/21/19 20/22/20 12/7/7
f 12/7/7 20/22/20 21/23/21 13/9/9
f 13/12/9 21/24/21 22/25/22 14/13/11
f 14/13/11 22/25/22 23/26/23 15/15/13
f 15/15/13 23/26/23 24/27/24 16/17/15
f 16/17/15 24/27/24 17/19/17 9/2/2
f 17/19/17 25/28/25 26/29/26 18/20/18
f 18/20/18 26/29/26 27/30/27 19/21/19
f 19/21/19 27/30/27 28/31/28 20/22/20
f 20/22/20 28/31/28 29/32/29 21/23/21
f 21/24/21 29/33/29 30/34/30 22/25/22
f 22/25/22 30/34/30 31/35/31 23/26/23
f 23/26/23 31/35/31 32/36/32 24/27/24
f 24/27/24 32/36/32 25/28/25 17/19/17
f 25/28/25 33/37/33 34/38/34 26/29/26
f 26/29/26 34/38/34 35/39/35 27/30/27
f 27/30/27 35/39/35 36/40/36 28/31/28
f 28/31/28 36/40/36 37/41/37 29/32/29
f 29/33/29 37/42/37 38/43/38 30/34/30
f 30/34/30 38/43/38 39/44/39 31/35/31
f 31/35/31 39/44/39 40/45/40 32/36/32
f 32/36/32 40/45/40 33/37/33 25/28/25
f 33/37/33 41/46/41 42/47/42 34/38/34
f 34/38/34 42/47/42 43/48/43 35/39/35
f 35/39/35 43/48/43 44/49/44 36/40/36
f 36/40/36 44/49/44 45/50/45 37/41/37
f 37/42/37 45/51/45 46/52/46 38/43/38
f 38/43/38 46/52/46 47/53/47 39/44/39
f 39/44/39 47/53/47 48/54/48 40/45/40
f 40/45/40 48/54/48 41/46/41 33/37/33
f 41/46/41 49/55/49 50/56/50 42/47/42
f 42/47/42 50/56/50 51/57/51 43/48/43
f 43/48/43 51/57/51 52/58/52 44/49/44
f 44/49/44 52/58/52 53/59/53 45/50/45
f 45/51/45 53/60/53 54/61/54 46/52/46
f 46/52/46 54/61/54 55/62/55 47/53/47
f 47/53/47 55/62/55 56/63/56 48/54/48
f 48/54/48 56/63/56 49/55/49 41/46/41
f 49/55/49 57/64/57 58/65/58 50/56/50
f 50/56/50 58/65/58 59/66/59 51/57/51
f 51/57/51 59/66/59 60/67/60 52/58/52
f 52/58/52 60/67/60 61/68/61 53/59/53
f 53/60/53 61/69/61 62/70/62 54/61/54
f 54/61/54 62/70/62 63/71/63 55/62/55
f 55/62/55 63/71/63 64/72/64 56/63/56
f 56/63/56 64/72/64 57/64/57 49/55/49
f 57/64/57 65/73/10 66/74/65 58/65/58
f 58/65/58 66/74/65 67/75/66 59/66/59
f 59/66/59 67/75/66 68/76/67 60/67/60
f 60/67/60 68/76/67 69/77/1 61/68/61
f 61/69/61 69/78/1 70/79/68 62/70/62
f 62/70/62 70/79/68 71/80/69 63/71/63
f 63/71/63 71/80/69 72/81/70 64/72/64
f 64/72/64 72/81/70 65/73/10 57/64/57
f 65/82/10 73/83/9 74/84/71 66/85/65
f 66/85/65 74/84/71 75/86/72 67/87/66
f 67/87/66 75/86/72 76/88/73 68/89/67
f 68/89/67 76/88/73 77/90/2 69/91/1
f 69/92/1 77/93/2 78/94/74 70/95/68
f 70/95/68 78/94/74 79/96/75 71/97/69
f 71/97/69 79/96/75 80/98/76 72/99/70
f 72/99/70 80/98/76 73/83/9 65/82/10
f 73/83/9 81/100/21 82/101/77 74/84/71
f 74/84/71 82/101/77 83/102/78 75/86/72
f 75/86/72 83/102/78 84/103/79 76/88/73
f 76/88/73 84/103/79 85/104/17 77/90/2
f 77/93/2 85/105/17 86/106/80 78/94/74
f 78/94/74 86/106/80 87/107/81 79/96/75
f 79/96/75 87/107/81 88/108/82 80/98/76
f 80/98/76 88/108/82 81/100/21 73/83/9
f 81/100/21 89/109/29 90/110/83 82/101/77
f 82/101/77 90/110/83 91/111/84 83/102/78
f 83/102/78 91/111/84 92/112/85 84/103/79
f 84/103/79 92/112/85 93/113/25 85/104/17
f 85/105/17 93/114/25 94/115/86 86/106/80
f 86/106/80 94/115/86 95/116/87 87/107/81
f 87/107/81 95/116/87 96/117/88 88/108/82
f 88/108/82 96/117/88 89/109/29 81/100/21
f 89/109/29 97/118/37 98/119/89 90/110/83
f 90/110/83 98/119/89 99/120/90 91/111/84
f 91/111/84 99/120/90 100/121/91 92/112/85
f 92/112/85 100/121/91 101/122/33 93/113/25
f 93/114/25 101/123/33 102/124/92 94/115/86
f 94/115/86 102/124/92 103/125/93 95/116/87
f 95/116/87 103/125/93 104/126/94 96/117/88
f 96/117/88 104/126/94 97/118/37 89/109/29
f 97/118/37 105/127/45 106/128/95 98/119/89
f 98/119/89 106/128/95 107/129/96 99/120/90
f 99/120/90 107/129/96 108/130/97 100/121/91
f 100/121/91 108/130/97 109/131/41 101/122/33
f 101/123/33 109/132/41 110/133/98 102/124/92
f 102/124/92 110/133/98 111/134/99 103/125/93
f 103/125/93 111/134/99 112/135/100 104/126/94
f 104/126/94 112/135/100 105/127/45 97/118/37
f 105/127/45 113/136/53 114/137/101 106/128/95
f 106/128/95 114/137/101 115/138/102 107/129/96
f 107/129/96 115/138/102 116/139/103 108/130/97
f 108/130/97 116/139/103 117/140/49 109/131/41
f 109/132/41 117/141/49 118/142/104 110/133/98
f 110/133/98 118/142/104 119/143/105 111/134/99
f 111/134/99 119/143/105 120/144/106 112/135/100
f 112/135/100 120/144/106 113/136/53 105/127/45
f 113/136/53 121/145/61 122/146/107 114/137/101
f 114/137/101 122/146/107 123/147/108 115/138/102
f 115/138/102 123/147/108 124/148/109 116/139/103
f 116/139/103 124/148/109 125/149/57 117/140/49
f 117/141/49 125/150/57 126/151/110 118/142/104
f 118/142/104 126/151/110 127/152/111 119/143/105
f 119/143/105 127/152/111 128/153/112 120/144/106
f 120/144/106 128/153/112 121/145/61 113/136/53
f 121/145/61 1/1/1 2/4/4 122/146/107
f 122/146/107 2/4/4 3/6/6 123/147/108
f 123/147/108 3/6/6 4/8/8 124/148/109
f 124/148/109 4/8/8 5/10/10 125/149/57
f 125/150/57 5/11/10 6/14/12 126/151/110
f 126/151/110 6/14/12 7/16/14 127/152/111
f 127/152/111 7/16/14 8/18/16 128/153/112
f 128/153/112 8/18/16 1/1/1 121/145/61
